<svg viewBox="0 0 32 32" enable-background="new 0 0 32 32" version="1.1" xml:space="preserve" xmlns="http://www.w3.org/2000/svg" xmlns:xlink="http://www.w3.org/1999/xlink">
    <g id="emoji_x2C__chat_x2C__message_x2C__good_x2C__relationship_x2C__customer_relationship">
        <g id="XMLID_1827_">
            <path d="M19,11.521h2c0,0.55-0.45,1-1,1S19,12.07,19,11.521z" fill="#f0f8ff" id="XMLID_1851_" />
            <path d="M24.5,10c0.27,0,0.5,0.23,0.5,0.5S24.77,11,24.5,11S24,10.77,24,10.5S24.23,10,24.5,10z" fill="#f0f8ff" id="XMLID_1844_" />
            <path d="M15.5,10c0.27,0,0.5,0.23,0.5,0.5S15.77,11,15.5,11S15,10.77,15,10.5S15.23,10,15.5,10z" fill="#f0f8ff" id="XMLID_1843_" />
        </g>
        <g id="XMLID_258_">
            <g id="XMLID_4018_">
                <path d="M21.5,21.52v1c0,1.66-1.34,3-3,3h-10l-3,4v-4h-1c-1.66,0-3-1.34-3-3v-10c0-1.659,1.34-3,3-3h3" fill="none" id="XMLID_4023_" stroke="#f0f8ff" stroke-linecap="round" stroke-linejoin="round" stroke-miterlimit="10" />
                <path d="M23.5,19.52l3,4v-4h1c1.66,0,3-1.34,3-3v-11c0-1.659-1.34-3-3-3h-15c-1.66,0-3,1.341-3,3v11c0,1.66,1.34,3,3,3H23.5z" fill="none" id="XMLID_4022_" stroke="#f0f8ff" stroke-linecap="round" stroke-linejoin="round" stroke-miterlimit="10" />
                <path d="M19,11.521h2c0,0.55-0.45,1-1,1S19,12.07,19,11.521z" fill="none" id="XMLID_4021_" stroke="#f0f8ff" stroke-linecap="round" stroke-linejoin="round" stroke-miterlimit="10" />
                <path d="M24.5,10c0.27,0,0.5,0.23,0.5,0.5S24.77,11,24.5,11S24,10.77,24,10.5S24.23,10,24.5,10z" fill="none" id="XMLID_4020_" stroke="#f0f8ff" stroke-linecap="round" stroke-linejoin="round" stroke-miterlimit="10" />
                <path d="M15.5,10c0.27,0,0.5,0.23,0.5,0.5S15.77,11,15.5,11S15,10.77,15,10.5S15.23,10,15.5,10z" fill="none" id="XMLID_4019_" stroke="#f0f8ff" stroke-linecap="round" stroke-linejoin="round" stroke-miterlimit="10" />
            </g>
            <g id="XMLID_4012_">
                <path d="M21.5,21.52v1c0,1.66-1.34,3-3,3h-10l-3,4v-4h-1c-1.66,0-3-1.34-3-3v-10c0-1.659,1.34-3,3-3h3" fill="none" id="XMLID_4017_" stroke="#f0f8ff" stroke-linecap="round" stroke-linejoin="round" stroke-miterlimit="10" />
                <path d="M23.5,19.52l3,4v-4h1c1.66,0,3-1.34,3-3v-11c0-1.659-1.34-3-3-3h-15c-1.66,0-3,1.341-3,3v11c0,1.66,1.34,3,3,3H23.5z" fill="none" id="XMLID_4016_" stroke="#f0f8ff" stroke-linecap="round" stroke-linejoin="round" stroke-miterlimit="10" />
                <path d="M19,11.521h2c0,0.55-0.45,1-1,1S19,12.07,19,11.521z" fill="none" id="XMLID_4015_" stroke="#f0f8ff" stroke-linecap="round" stroke-linejoin="round" stroke-miterlimit="10" />
                <path d="M24.5,10c0.27,0,0.5,0.23,0.5,0.5S24.77,11,24.5,11S24,10.77,24,10.5S24.23,10,24.5,10z" fill="none" id="XMLID_4014_" stroke="#f0f8ff" stroke-linecap="round" stroke-linejoin="round" stroke-miterlimit="10" />
                <path d="M15.5,10c0.27,0,0.5,0.23,0.5,0.5S15.77,11,15.5,11S15,10.77,15,10.5S15.23,10,15.5,10z" fill="none" id="XMLID_4013_" stroke="#f0f8ff" stroke-linecap="round" stroke-linejoin="round" stroke-miterlimit="10" />
            </g>
        </g>
    </g>
</svg>